<svg xmlns="http://www.w3.org/2000/svg" viewBox="535.90 656.85 1557.95 438.90" width="500" height="500">
  <rect x="545.90" y="674.40" width="0.00" height="411.35" fill="#d4af37" />
  <rect x="545.90" y="674.40" width="7.80" height="411.35" fill="#d4af37" />
  <rect x="553.70" y="674.40" width="7.80" height="411.35" fill="#d4af37" />
  <rect x="561.55" y="674.40" width="7.80" height="411.35" fill="#d4af37" />
  <rect x="569.35" y="674.40" width="7.80" height="411.35" fill="#d4af37" />
  <rect x="577.15" y="674.40" width="7.80" height="411.35" fill="#d4af37" />
  <rect x="584.95" y="674.40" width="7.80" height="411.35" fill="#d4af37" />
  <rect x="592.75" y="674.40" width="7.80" height="411.35" fill="#d4af37" />
  <rect x="600.55" y="674.40" width="7.80" height="411.35" fill="#d4af37" />
  <rect x="608.40" y="674.40" width="7.80" height="411.35" fill="#d4af37" />
  <rect x="616.20" y="674.40" width="7.80" height="411.35" fill="#d4af37" />
  <rect x="624.00" y="674.40" width="7.80" height="411.35" fill="#d4af37" />
  <rect x="631.80" y="674.40" width="7.80" height="411.35" fill="#d4af37" />
  <rect x="639.60" y="674.40" width="7.80" height="411.35" fill="#d4af37" />
  <rect x="647.40" y="674.40" width="7.80" height="411.35" fill="#d4af37" />
  <rect x="655.20" y="674.40" width="7.80" height="411.35" fill="#d4af37" />
  <rect x="663.05" y="674.40" width="7.80" height="411.35" fill="#d4af37" />
  <rect x="670.85" y="674.40" width="7.80" height="411.35" fill="#d4af37" />
  <rect x="678.65" y="674.40" width="7.80" height="411.35" fill="#d4af37" />
  <rect x="686.45" y="674.40" width="7.80" height="411.35" fill="#d4af37" />
  <rect x="694.25" y="674.40" width="7.80" height="411.35" fill="#d4af37" />
  <rect x="702.05" y="674.40" width="7.80" height="411.35" fill="#d4af37" />
  <rect x="709.90" y="674.40" width="7.80" height="411.35" fill="#d4af37" />
  <rect x="717.70" y="674.40" width="7.80" height="411.35" fill="#d4af37" />
  <rect x="725.50" y="674.40" width="7.80" height="411.35" fill="#d4af37" />
  <rect x="733.30" y="674.40" width="7.80" height="411.35" fill="#d4af37" />
  <rect x="741.10" y="674.40" width="7.80" height="411.35" fill="#d4af37" />
  <rect x="748.90" y="674.40" width="7.80" height="411.35" fill="#d4af37" />
  <rect x="756.75" y="674.40" width="7.80" height="411.35" fill="#d4af37" />
  <rect x="764.55" y="674.40" width="7.80" height="411.35" fill="#d4af37" />
  <rect x="772.35" y="674.40" width="7.80" height="411.35" fill="#d4af37" />
  <rect x="780.15" y="674.40" width="7.80" height="411.35" fill="#d4af37" />
  <rect x="787.95" y="674.40" width="7.80" height="411.35" fill="#d4af37" />
  <rect x="795.75" y="674.40" width="7.80" height="411.35" fill="#d4af37" />
  <rect x="803.55" y="674.40" width="7.80" height="411.35" fill="#d4af37" />
  <rect x="811.40" y="674.40" width="7.80" height="411.35" fill="#d4af37" />
  <rect x="819.20" y="674.40" width="7.80" height="411.35" fill="#d4af37" />
  <rect x="827.00" y="674.40" width="7.80" height="411.35" fill="#d4af37" />
  <rect x="834.80" y="674.40" width="7.80" height="411.35" fill="#d4af37" />
  <rect x="842.60" y="674.40" width="7.80" height="411.35" fill="#d4af37" />
  <rect x="850.40" y="674.40" width="7.80" height="411.35" fill="#d4af37" />
  <rect x="858.25" y="674.40" width="7.80" height="411.35" fill="#d4af37" />
  <rect x="866.05" y="674.40" width="7.80" height="411.35" fill="#d4af37" />
  <rect x="873.85" y="674.40" width="7.80" height="411.35" fill="#d4af37" />
  <rect x="881.65" y="674.40" width="7.80" height="411.35" fill="#d4af37" />
  <rect x="889.45" y="674.40" width="7.80" height="411.35" fill="#d4af37" />
  <rect x="897.25" y="674.40" width="7.80" height="411.35" fill="#d4af37" />
  <rect x="905.10" y="674.40" width="7.80" height="411.35" fill="#d4af37" />
  <rect x="912.90" y="674.40" width="7.80" height="411.35" fill="#d4af37" />
  <rect x="920.70" y="674.40" width="7.80" height="411.35" fill="#d4af37" />
  <rect x="928.50" y="674.40" width="7.80" height="411.35" fill="#d4af37" />
  <rect x="936.30" y="674.40" width="7.80" height="411.35" fill="#d4af37" />
  <rect x="944.10" y="674.40" width="7.80" height="411.35" fill="#d4af37" />
  <rect x="951.95" y="674.40" width="0.00" height="411.35" fill="#d4af37" />
  <rect x="795.40" y="666.85" width="102.85" height="6.35" fill="#d4af37" />
  <rect x="795.40" y="673.20" width="102.85" height="7.45" fill="#d4af37" />
  <rect x="795.40" y="680.65" width="102.85" height="7.45" fill="#d4af37" />
  <rect x="795.40" y="688.15" width="102.85" height="7.45" fill="#d4af37" />
  <rect x="795.40" y="695.60" width="102.85" height="7.50" fill="#d4af37" />
  <rect x="795.40" y="703.10" width="102.85" height="7.45" fill="#d4af37" />
  <rect x="795.40" y="710.55" width="102.85" height="7.45" fill="#d4af37" />
  <rect x="795.40" y="718.05" width="102.85" height="7.45" fill="#d4af37" />
  <rect x="795.40" y="725.50" width="102.85" height="7.45" fill="#d4af37" />
  <rect x="795.40" y="733.00" width="102.85" height="6.75" fill="#d4af37" />
  <rect x="636.25" y="674.45" width="179.25" height="6.20" fill="#d4af37" />
  <rect x="636.25" y="680.65" width="179.25" height="7.45" fill="#d4af37" />
  <rect x="636.25" y="688.15" width="179.25" height="7.45" fill="#d4af37" />
  <rect x="636.25" y="695.60" width="179.25" height="7.50" fill="#d4af37" />
  <rect x="636.25" y="703.10" width="179.25" height="7.45" fill="#d4af37" />
  <rect x="636.25" y="710.55" width="179.25" height="4.60" fill="#d4af37" />
  <rect x="1677.85" y="674.40" width="406.00" height="411.35" fill="#d4af37" />
  <rect x="1927.70" y="666.85" width="102.50" height="72.90" fill="#d4af37" />
  <rect x="1768.20" y="674.50" width="179.25" height="40.65" fill="#d4af37" />
  <rect x="1890.90" y="745.20" width="81.85" height="287.50" fill="#d4af37" />
</svg>